<?xml version="1.0" standalone="no"?>
<!DOCTYPE svg PUBLIC "-//W3C//DTD SVG 1.1//EN" "http://www.w3.org/Graphics/SVG/1.1/DTD/svg11.dtd" >
<svg xmlns="http://www.w3.org/2000/svg">
<metadata>
This is a custom SVG webfont generated by Font Squirrel.
Copyright   : Font designed by Loic Sander 2012 Distributed under the terms of the SIL OFL Licence Free for commercial use This font file can me modified at will under the conditions that any modification made is mentionned and clearly stated in the filename or accompanying info in case of further distribution
Designer    : Loic Sander
Foundry     : Loic Sander
</metadata>
<defs>
<font id="FengardoNeueBlack" horiz-adv-x="579" >
<font-face units-per-em="2048" ascent="1475" descent="-573" />
<missing-glyph horiz-adv-x="450" />
<glyph unicode=" "  horiz-adv-x="450" />
<glyph unicode="&#x09;" horiz-adv-x="450" />
<glyph unicode="&#xa0;" horiz-adv-x="450" />
<glyph unicode="!" horiz-adv-x="501" d="M31 1452l440 33l-106 -942h-232q-102 868 -102 909zM45 170q0 90 58.5 147.5t146.5 57.5t147.5 -57.5t59.5 -147.5q0 -86 -59.5 -143.5t-147.5 -57.5q-86 0 -145.5 57.5t-59.5 143.5z" />
<glyph unicode="&#x22;" horiz-adv-x="845" d="M31 1485l338 35l-21 -701h-239q-78 639 -78 666zM459 819q10 639 10 666l346 35l-117 -701h-239z" />
<glyph unicode="#" horiz-adv-x="1267" d="M41 293l31 256h190l14 153h-194l29 256h192l29 271h286l-26 -271h153l29 271h287l-27 -271h193l-27 -256h-190l-17 -153h195l-25 -256h-194l-29 -293h-291l29 293h-152l-28 -293h-291l29 293h-195zM551 549h154l14 153h-152z" />
<glyph unicode="$" horiz-adv-x="1103" d="M74 520l362 10q0 -155 137 -155q111 0 111 84q0 25 -12.5 43t-45 35.5t-55 25.5t-80 26.5t-79.5 26.5q-162 55 -248 138.5t-86 246.5q0 162 101.5 263.5t266.5 128.5v135l267 69v-213q156 -33 240.5 -135t74.5 -278l-360 -10q0 156 -111 155q-47 0 -76.5 -23.5 t-29.5 -68.5q0 -16 5 -31.5t12 -27t22.5 -22.5t26.5 -18t34.5 -17.5t36 -15.5t43.5 -16.5t43 -15.5q68 -25 109.5 -43t100 -53t91.5 -72t57.5 -94t24.5 -127q0 -143 -95.5 -239.5t-248.5 -127.5v-147l-267 -70v213q-383 59 -372 420z" />
<glyph unicode="%" horiz-adv-x="1517" d="M41 1083q0 137 86 223.5t221 86.5q137 0 223 -86t86 -224q0 -133 -90 -219t-219 -86q-135 0 -221 85t-86 220zM289 1085.5q0 -30.5 17.5 -51t44 -20.5t44 20.5t17.5 51t-17.5 51t-44 20.5t-44 -20.5t-17.5 -51zM301 0l690 1454h266l-690 -1454h-266zM860 274 q0 137 86 223.5t221 86.5q137 0 223.5 -86t86.5 -224q0 -133 -90.5 -219t-219.5 -86q-135 0 -221 85t-86 220zM1108 276.5q0 -30.5 17.5 -51t44 -20.5t44 20.5t17.5 51t-17.5 51t-44 20.5t-44 -20.5t-17.5 -51z" />
<glyph unicode="&#x26;" horiz-adv-x="1325" d="M51 424q0 113 62.5 205t169.5 149q-82 41 -137.5 124t-55.5 183q0 182 148.5 291t351.5 109q225 0 354 -121t129 -350l-358 -10q0 78 -32 120.5t-87 42.5q-57 0 -87 -38.5t-30 -98.5q0 -66 31.5 -108.5t101.5 -42.5v-246q-82 0 -127 -44t-45 -122q0 -82 51.5 -131 t129.5 -49q90 0 144 63.5t54 165.5v117h-104v246h579v-246h-106v-86q0 -248 -169 -413t-417 -165t-399.5 123t-151.5 332z" />
<glyph unicode="'" horiz-adv-x="403" d="M31 1485l342 35l-45 -701h-240q-57 639 -57 666z" />
<glyph unicode="(" horiz-adv-x="755" d="M82 594q0 174 48 335t115.5 265t135.5 183t116 115l48 36l211 -35q-12 -14 -33 -41t-74 -116t-93 -186t-72.5 -245.5t-32.5 -300.5q0 -156 30.5 -301t73.5 -241.5t86 -171t74 -109.5l30 -35l-210 -55q-18 12 -49 34.5t-109 104.5t-137.5 177t-108.5 254t-49 333z" />
<glyph unicode=")" horiz-adv-x="755" d="M0 1493l211 35q18 -12 50 -37t112 -112t140 -186t110.5 -262t50.5 -337q0 -127 -24.5 -245t-64.5 -206t-89.5 -164.5t-97.5 -128t-88 -88t-64 -54.5l-25 -17l-211 55q12 12 31.5 35.5t71 106.5t90.5 175.5t70.5 239t31.5 301.5q0 152 -31.5 299.5t-76.5 248.5t-89.5 182 t-75.5 120z" />
<glyph unicode="*" horiz-adv-x="872" d="M-25 1116l78 217l254 -100l-31 270l263 13l-29 -283l246 100l69 -231l-262 -47l201 -246l-207 -135l-156 254l-153 -250l-199 133l184 238z" />
<glyph unicode="+" horiz-adv-x="1105" d="M51 369v297h338v368h328v-368h338v-297h-338v-379h-328v379h-338z" />
<glyph unicode="," horiz-adv-x="501" d="M-10 -242q98 29 154.5 81t64.5 90l8 38q-78 4 -130 60.5t-52 144.5q0 90 61.5 143.5t141.5 53.5q104 0 163.5 -72t59.5 -184q0 -115 -42 -205t-107.5 -141.5t-129.5 -79t-123 -33.5z" />
<glyph unicode="-" d="M31 369v297h518v-297h-518z" />
<glyph unicode="." horiz-adv-x="509" d="M51 174q0 94 57.5 152.5t145.5 58.5t146.5 -58.5t58.5 -152.5q0 -90 -58.5 -147.5t-146.5 -57.5q-86 0 -144.5 57.5t-58.5 147.5z" />
<glyph unicode="/" horiz-adv-x="1019" d="M-10 -205l733 1721h307l-733 -1721h-307z" />
<glyph unicode="0" horiz-adv-x="1120" d="M66 387q-4 223 0 340q8 180 141 305t352 125q213 0 350.5 -121t145.5 -305q6 -168 0 -344q-6 -180 -135 -299t-354.5 -119t-360.5 120t-139 298zM430 410q4 -57 40 -95.5t91 -38.5q57 0 89 35.5t36 96.5q8 154 0 303q-4 61 -37 100t-88 39q-123 0 -131 -145 q-8 -113 0 -295z" />
<glyph unicode="1" horiz-adv-x="890" d="M82 0v225l197 47v539h-173l-22 203l418 121l145 -9v-854l203 -47v-225h-768z" />
<glyph unicode="2" horiz-adv-x="1062" d="M51 684q-8 211 126 342t345 131q190 0 319.5 -99.5t129.5 -287.5q0 -180 -180 -338q-125 -106 -271 -164l174 19h328v-287h-936l-20 211q37 29 370 295q164 131 164 239q0 47 -24.5 76t-65.5 29q-53 0 -83 -39t-28 -106z" />
<glyph unicode="3" horiz-adv-x="1112" d="M41 84l348 20q6 -78 46 -116.5t101.5 -38.5t98.5 46t37 138t-50.5 143.5t-146.5 51.5l-88 -13l-49 162l229 342h-483v307h895l31 -225l-271 -385q135 -27 218 -139.5t83 -267.5q0 -209 -139 -338t-356 -129q-223 0 -360.5 122.5t-143.5 319.5z" />
<glyph unicode="4" horiz-adv-x="1155" d="M51 209l309 917l388 82l-306 -921h195l20 297l338 92v-389h129v-277h-129l-10 -338h-348v338h-547z" />
<glyph unicode="5" horiz-adv-x="1091" d="M51 74l348 20q12 -145 138 -145q66 0 100.5 54t34.5 144q0 190 -137 191q-39 0 -69 -23.5t-42 -52.5l-295 21l57 843h781v-307h-486l-22 -274q78 39 200 39q164 0 272.5 -107.5t108.5 -322.5q0 -250 -144 -381t-353 -131q-195 0 -339.5 110.5t-152.5 321.5z" />
<glyph unicode="6" horiz-adv-x="1150" d="M70 459q-16 303 0 534q16 207 147 334t365 127q213 0 337.5 -105.5t127.5 -314.5l-349 -20q0 61 -31.5 97t-91.5 36q-129 0 -137 -172q-6 -94 -6 -230q12 25 36 52.5t95.5 60.5t165.5 33q162 0 266.5 -121t104.5 -307q0 -233 -141.5 -362.5t-362.5 -129.5 q-219 0 -366.5 130.5t-159.5 357.5zM438 469q12 -193 158 -193q59 0 97 44.5t38 123.5q0 170 -143 170q-70 0 -108 -41t-42 -104z" />
<glyph unicode="7" horiz-adv-x="1048" d="M10 819v307h967l41 -256l-510 -1198h-408l494 1147h-584z" />
<glyph unicode="8" horiz-adv-x="1110" d="M51 391q0 221 197 336q-88 45 -138.5 129t-50.5 172q0 207 144.5 316.5t355.5 109.5q207 0 349.5 -106.5t142.5 -307.5q0 -88 -54.5 -177t-142.5 -136q98 -31 151.5 -120t53.5 -195q0 -219 -145.5 -331t-364.5 -112q-215 0 -356.5 106.5t-141.5 315.5zM418 430 q0 -76 39 -115t98 -39q57 0 97 39t40 115q0 74 -40 114t-97 40t-97 -40t-40 -114zM428 1012q0 -70 36 -106t91 -36t91 36t36 106q0 68 -36 101.5t-91 33.5t-91 -33.5t-36 -101.5z" />
<glyph unicode="9" horiz-adv-x="1167" d="M51 653q0 215 132 359.5t365.5 144.5t372 -132t154.5 -353q20 -268 0 -561q-16 -225 -156.5 -347t-371.5 -122q-207 0 -340 114.5t-141 302.5l348 21q0 -59 41 -95t102 -36q137 0 150 166q6 92 6 215q-47 -133 -254 -133q-176 0 -292 124.5t-116 331.5zM420 666 q0 -183 158 -183q76 0 105.5 46t23.5 118v19q-10 184 -152 184q-59 0 -97 -49t-38 -135z" />
<glyph unicode=":" horiz-adv-x="493" d="M61 174q0 94 57.5 152.5t145.5 58.5t146.5 -58.5t58.5 -152.5q0 -90 -58.5 -147.5t-146.5 -57.5q-86 0 -144.5 57.5t-58.5 147.5zM61 766q0 94 57.5 152.5t145.5 58.5t146.5 -58.5t58.5 -152.5q0 -90 -58.5 -147.5t-146.5 -57.5q-86 0 -144.5 57.5t-58.5 147.5z" />
<glyph unicode=";" horiz-adv-x="499" d="M-10 -242q98 29 154.5 81t64.5 90l8 38q-78 4 -130 60.5t-52 144.5q0 90 61.5 143.5t141.5 53.5q104 0 163.5 -72t59.5 -184q0 -115 -42 -205t-107.5 -141.5t-129.5 -79t-123 -33.5zM68 768q0 94 57 152.5t145 58.5t146.5 -58.5t58.5 -152.5q0 -90 -58.5 -147.5 t-146.5 -57.5q-86 0 -144 57.5t-58 147.5z" />
<glyph unicode="&#x3c;" horiz-adv-x="1046" d="M61 442v82l799 514l135 -229l-489 -303l2 -23l485 -327l-157 -219z" />
<glyph unicode="=" horiz-adv-x="1048" d="M51 190v287h946v-287h-946zM51 590v287h946v-287h-946z" />
<glyph unicode="&#x3e;" horiz-adv-x="1046" d="M51 164l488 303l-2 27l-484 323l158 219l774 -516v-82l-799 -504z" />
<glyph unicode="?" horiz-adv-x="995" d="M43 1024q-8 221 127 341t346 120q184 0 316.5 -104.5t132.5 -288.5q0 -98 -43 -164t-158 -154q-20 -14 -45 -33.5t-39 -31t-32.5 -24.5t-29 -22.5t-21.5 -19.5t-17.5 -17.5t-11.5 -16.5t-7 -16t-2 -15v-46h-190l-13 52q-18 92 12.5 149.5t131.5 159.5q51 55 63 88t12 90 q0 96 -83 96q-41 0 -67 -34.5t-24 -98.5zM266 170q0 90 58.5 147.5t146.5 57.5t147.5 -57.5t59.5 -147.5q0 -86 -59.5 -143.5t-147.5 -57.5q-86 0 -145.5 57.5t-59.5 143.5z" />
<glyph unicode="@" horiz-adv-x="1964" d="M41 393q0 451 286.5 735.5t737.5 284.5q178 0 330.5 -48t271.5 -141.5t187.5 -243t68.5 -337.5q0 -270 -146.5 -440t-402.5 -170q-231 0 -315 164q-102 -133 -258 -134q-125 0 -197 88.5t-55 274.5q10 106 43 238q86 332 452 331q242 0 386 -133l-82 -475 q-20 -123 75 -123q74 0 134.5 83t60.5 276q0 246 -146.5 390t-408.5 144q-319 0 -513 -200.5t-194 -536.5q0 -266 166 -420t453 -154q229 1 473 107l80 -184q-115 -90 -284 -135.5t-339 -45.5q-238 0 -431 91.5t-313 276.5t-120 437zM887 424q-12 -94 59 -94q49 0 74 47 l59 323q-29 18 -61 19q-70 0 -92 -84q-25 -92 -39 -211z" />
<glyph unicode="A" horiz-adv-x="1243" d="M-10 0l327 1368v86h605l331 -1454h-419l-48 256h-348l-49 -256h-399zM504 584h223l-78 430l-31 188l-30 -188z" />
<glyph unicode="B" horiz-adv-x="1214" d="M102 0v1454q281 2 486 2q129 0 225 -15.5t179 -54t126 -112.5t43 -182q0 -119 -80 -206t-200 -120v-6q8 0 33.5 -5t72.5 -25.5t86 -53.5t70 -98.5t31 -151.5q0 -186 -137.5 -307t-444.5 -121zM512 338q2 0 30.5 -1t57.5 -1q164 0 164 139q0 141 -162 141q-20 0 -40 -1 t-34 -1h-16v-276zM512 860q2 0 37 -1t59 -1q143 0 144 135q0 125 -158 125q-29 0 -54.5 -1t-27.5 -1v-256z" />
<glyph unicode="C" horiz-adv-x="1146" d="M66 455q-3 192 -3 331t3 224q8 225 167.5 350t380.5 125q109 0 201 -31t164 -90q71 -60 111 -158q36 -89 36 -200v-23l-378 -10q0 86 -36 130t-97.5 44t-99.5 -40t-40 -116q-4 -96 -4 -225.5t4 -290.5q6 -168 137 -168q59 0 102.5 46t43.5 128l379 -10 q0 -225 -144.5 -363.5t-390.5 -138.5q-238 0 -385 130t-151 356z" />
<glyph unicode="D" horiz-adv-x="1241" d="M102 0v1454q184 10 381 10q645 0 680 -481q16 -212 16 -367q0 -87 -5 -157q-35 -469 -707 -469zM502 332q2 -4 51 -4q188 0 203 172q8 98 8 212t-8 244q-10 170 -197 170l-57 -4v-790z" />
<glyph unicode="E" horiz-adv-x="1052" d="M102 0v1454h869v-338h-459v-215h416v-328h-416v-235h459v-338h-869z" />
<glyph unicode="F" horiz-adv-x="995" d="M102 0v1454h883v-338h-473v-276h432v-328h-432v-512h-410z" />
<glyph unicode="G" horiz-adv-x="1208" d="M66 455q-3 193 -3 331.5t3 223.5q8 225 169.5 350t385.5 125q227 0 377 -129q143 -122 143 -349v-24l-379 -10q0 84 -39 129t-102.5 45t-102.5 -42t-43 -114q-5 -122 -5 -251t5 -265q2 -82 44 -125t106 -43q68 0 106.5 41t42.5 111v73h-147v287h538q1 -76 1 -138 q0 -126 -3 -200q-8 -258 -162.5 -385t-388 -127t-388 127t-158.5 359z" />
<glyph unicode="H" horiz-adv-x="1372" d="M102 0v1454h410v-553h348v553h410v-1454h-410v563h-348v-563h-410z" />
<glyph unicode="I" horiz-adv-x="614" d="M102 0v1454h410v-1454h-410z" />
<glyph unicode="J" horiz-adv-x="1069" d="M2 471l358 10v-11q0 -163 115 -163q102 0 103 164v983h409v-983q0 -242 -144.5 -372t-359.5 -130q-219 0 -356 131q-126 120 -126 333q0 19 1 38z" />
<glyph unicode="K" horiz-adv-x="1288" d="M102 0v1454h410v-1454h-410zM522 739l326 715h432l-340 -670l358 -784h-450z" />
<glyph unicode="L" horiz-adv-x="956" d="M102 0v1454h410v-1116h424v-338h-834z" />
<glyph unicode="M" horiz-adv-x="1572" d="M102 0v1454h400l217 -543l63 -161h4l60 159l237 545h387v-1454h-409l4 637l20 197l-4 2l-77 -199l-170 -371h-129l-162 373l-72 197l-4 -2l20 -201l5 -633h-390z" />
<glyph unicode="N" horiz-adv-x="1357" d="M102 0v1454h355l360 -676l49 -137v813h389v-1454h-360l-344 598l-59 168v-766h-390z" />
<glyph unicode="O" horiz-adv-x="1232" d="M68 471q-5 123 -5 251.5t5 262.5q8 238 162.5 369t388 131t387 -131t161.5 -369q4 -121 4 -250.5t-4 -267.5q-6 -238 -161.5 -368t-389 -130t-386 130t-162.5 372zM471 733.5q0 -176.5 6 -272.5q8 -154 139 -154q133 0 142 154q6 127 6 263t-6 280q-6 143 -139.5 143 t-141.5 -143q-6 -94 -6 -270.5z" />
<glyph unicode="P" horiz-adv-x="1187" d="M102 0v1454q176 2 349 2q123 0 213 -7t195.5 -37t172 -82t111.5 -147.5t45 -226.5q0 -219 -154.5 -353t-410.5 -134l-111 4v-473h-410zM512 788q25 -2 70 -2q86 0 141 41t55 129q0 162 -211 162l-55 -2v-328z" />
<glyph unicode="Q" horiz-adv-x="1241" d="M68 471q-5 123 -5 251.5t5 262.5q8 238 162.5 369t388 131t387 -131t161.5 -369q4 -121 4 -250.5t-4 -267.5q-6 -201 -120.5 -327t-296.5 -158q70 -8 225 -41q184 -37 229 -37t58 2v-256q-35 -47 -111 -47q-145 0 -352 139q-324 217 -428 270q-135 53 -215 170t-88 289z M471 733.5q0 -176.5 6 -272.5q8 -154 139 -154q133 0 142 154q6 127 6 263t-6 280q-6 143 -139.5 143t-141.5 -143q-6 -94 -6 -270.5z" />
<glyph unicode="R" horiz-adv-x="1226" d="M113 0v1454q197 4 413 4q150 0 258.5 -16.5t202.5 -59.5t143.5 -125.5t49.5 -205.5q0 -281 -269 -396q55 -31 103 -123q37 -74 95 -206.5t98 -229.5l40 -96h-436l-227 547h-62v-547h-409zM522 834q6 -4 45 -5q205 0 205 156q0 154 -192 154l-58 -2v-303z" />
<glyph unicode="S" horiz-adv-x="1185" d="M63 471l379 10q0 -90 46 -132t120 -42q127 0 127 90q0 49 -58.5 90t-219.5 95q-383 125 -383 446q0 219 153.5 338t376.5 119q228 0 374 -126q136 -118 137 -344q0 -16 -1 -32l-379 -10q0 174 -135 174q-49 0 -83 -23.5t-34 -66.5q0 -57 52.5 -95t226.5 -100 q193 -68 288 -165t95 -289q0 -199 -150.5 -319t-384.5 -120q-154 0 -276.5 50.5t-200.5 166.5q-71 106 -71 254q0 15 1 31z" />
<glyph unicode="T" horiz-adv-x="1040" d="M-10 1116v338h1061v-338h-326v-1116h-410v1116h-325z" />
<glyph unicode="U" horiz-adv-x="1239" d="M86 444v1010h391q-2 -113 -2 -488.5t2 -492.5q2 -78 42 -122t103.5 -44t99.5 44t40 122q2 111 2 484.5t-2 496.5h391q3 -259 3 -512.5t-3 -501.5q-2 -221 -158.5 -346t-380.5 -125q-221 0 -373.5 125t-154.5 350z" />
<glyph unicode="V" horiz-adv-x="1222" d="M0 1454h430l195 -1057l188 1057h410l-324 -1454h-559z" />
<glyph unicode="W" horiz-adv-x="1775" d="M20 1454h431l96 -676l26 -254h7l26 254l115 676h352l125 -676l31 -260h6l25 260l86 676h409l-282 -1454h-429l-122 676l-27 227h-4l-27 -227l-116 -676h-445z" />
<glyph unicode="X" horiz-adv-x="1255" d="M0 0l371 752l-371 702h471l164 -387l162 387h440l-369 -711l398 -743h-471l-191 438l-164 -438h-440z" />
<glyph unicode="Y" horiz-adv-x="1148" d="M-61 1454h434l164 -420l43 -141l45 141l170 420h415l-436 -913v-541h-409v543z" />
<glyph unicode="Z" horiz-adv-x="1089" d="M31 229l530 887h-520v338h995l15 -219l-529 -897h537v-338h-1016z" />
<glyph unicode="[" horiz-adv-x="636" d="M51 -287v1803h545v-136l-197 -51v-1429l197 -52v-135h-545z" />
<glyph unicode="\" horiz-adv-x="921" d="M-10 1516h307l635 -1721h-303z" />
<glyph unicode="]" horiz-adv-x="636" d="M41 -152l197 52v1429l-197 51v136h545v-1803h-545v135z" />
<glyph unicode="^" horiz-adv-x="907" d="M10 1085l285 369h334l268 -369h-307l-131 201l-152 -201h-297z" />
<glyph unicode="_" horiz-adv-x="925" d="M-10 -72h946v-297h-946v297z" />
<glyph unicode="`" horiz-adv-x="604" d="M-20 1454h378l164 -297h-243z" />
<glyph unicode="a" horiz-adv-x="1058" d="M61 281q0 102 50.5 162.5t164.5 93.5q61 18 133 35.5t113 25.5l41 8v70q0 72 -55 72q-32 0 -50 -20q-14 -15 -13 -43q0 -9 1 -19l-337 -11q-2 19 -2 38q1 151 103 245q114 106 312 106q180 0 295 -95t115 -271v-324q0 -61 19 -79.5t87 -18.5v-256q-54 -20 -124 -26 q-12 -1 -25 -2q-60 0 -129 26q-84 31 -123 106h-4q-100 -135 -271 -135q-129 0 -215 88t-86 224zM430 334q0 -78 68 -78q29 0 47 18.5t18 51.5v118q-45 -10 -80 -22q-53 -18 -53 -88z" />
<glyph unicode="b" horiz-adv-x="1042" d="M82 41v1434l369 61v-584q8 10 24.5 25.5t75.5 41t129 25.5q129 0 211 -81.5t86 -225.5q4 -99 4 -201.5t-4 -209.5q-6 -164 -139 -260.5t-306 -96.5q-119 0 -231.5 17.5t-165.5 36.5zM451 281q31 -14 77 -15q29 0 53.5 19.5t26.5 52.5q2 78 2 161t-2 171q0 78 -69 78 q-41 0 -64.5 -28t-23.5 -69v-370z" />
<glyph unicode="c" horiz-adv-x="958" d="M66 352q-3 87 -4 166q0 85 4 162q8 168 134 266t308 98q201 0 309 -104q96 -93 96 -245q0 -20 -2 -40l-338 -10q1 11 1 21q0 31 -13 53q-18 29 -53 29q-72 0 -74 -82q-3 -76 -3 -154.5t3 -159.5q2 -39 24.5 -62.5t51.5 -23.5q38 0 56 26q15 21 15 52q0 7 -1 14l338 -10 q-4 -164 -114 -271.5t-294 -107.5q-195 0 -316.5 101.5t-127.5 281.5z" />
<glyph unicode="d" horiz-adv-x="1091" d="M66 303q-3 90 -3 182.5t3 186.5q8 180 101 276t226 96q57 0 105.5 -12t67.5 -25l20 -14v482l368 61v-1182q0 -61 19.5 -79.5t87.5 -18.5v-256q-65 -23 -143 -25h-10q-73 0 -145 29q-77 31 -112 96q-2 -6 -8 -14t-27.5 -30.5t-49 -40t-74 -32t-99.5 -14.5q-131 0 -225 88 t-102 246zM434 348q4 -82 78 -82q35 0 54.5 20.5t19.5 55.5v328q0 37 -21.5 57.5t-52.5 20.5q-74 0 -78 -78q-3 -80 -3 -160.5t3 -161.5z" />
<glyph unicode="e" horiz-adv-x="983" d="M66 352q-3 71 -3 145.5t3 151.5q6 176 134 285.5t316 109.5q178 0 297 -94t119 -268q0 -102 -51.5 -147.5t-175.5 -71.5l-273 -47v-64q0 -39 19.5 -62.5t54.5 -23.5q33 0 53.5 21.5t22.5 60.5l338 -10q-6 -168 -122 -268.5t-292 -100.5q-182 0 -307 98.5t-133 284.5z M432 578q35 2 70 10q37 8 49 23.5t12 60.5q0 76 -63 76q-68 0 -68 -72v-98z" />
<glyph unicode="f" horiz-adv-x="679" d="M0 758v256h113v137q0 178 113.5 281.5t281.5 103.5q137 0 233 -55l-47 -262q-51 10 -104 10q-45 0 -77 -24.5t-32 -74.5v-116h197v-256h-197v-758h-368v758h-113z" />
<glyph unicode="g" horiz-adv-x="1087" d="M20 -231q0 59 27 89.5t92 49.5l111 24l100 11v10l-67 10q-86 16 -140.5 66.5t-54.5 134.5q0 139 172 213q-162 98 -162 299q0 174 128 271t315 97q47 0 93 -8t67 -15l22 -7h344q6 -51 6 -108q0 -65 -8 -138q-176 8 -223 18v-6q113 -41 113 -173q0 -134 -111 -217 t-297 -83q-70 0 -119 10q-33 -14 -33 -41q0 -35 37 -41t156 -21t180 -28q145 -31 227 -115.5t82 -215.5q0 -184 -143 -291t-371 -107q-229 0 -386 82t-157 230zM391 -172q0 -37 46 -60.5t116 -23.5q76 0 117 23.5t41 62.5q0 68 -97 90l-165 -45q-57 -16 -58 -47zM469 678 q0 -84 72 -84q74 0 73 84q1 80 -73 80q-31 0 -51.5 -20.5t-20.5 -59.5z" />
<glyph unicode="h" horiz-adv-x="1069" d="M92 0v1475l369 61v-627h4q82 135 246 135q127 0 206.5 -83.5t79.5 -262.5v-698h-368v645q0 102 -76 103q-51 0 -71.5 -32t-20.5 -61v-655h-369z" />
<glyph unicode="i" horiz-adv-x="600" d="M61 1333q0 88 60.5 145.5t148.5 57.5q90 0 150.5 -56.5t60.5 -146.5q0 -86 -61.5 -141t-149.5 -55t-148.5 56t-60.5 140zM82 281v680l369 63v-678q0 -55 29.5 -72.5t88.5 -17.5v-256q-81 -18 -155 -19h-8q-70 0 -147 18q-81 19 -129 91t-48 191z" />
<glyph unicode="j" horiz-adv-x="606" d="M-20 -256q139 0 139 111v1106l368 63v-1198q0 -106 -35.5 -181t-88 -111t-123.5 -51q-60 -13 -113 -13q-11 0 -21 1q-63 3 -126 17v256zM94 1333q0 88 60.5 145.5t148.5 57.5q90 0 150.5 -56.5t60.5 -146.5q0 -86 -61.5 -141t-149.5 -55t-148.5 56t-60.5 140z" />
<glyph unicode="k" horiz-adv-x="1077" d="M92 0v1475l369 61v-1536h-369zM475 535v55l158 252q68 106 136.5 154t166.5 48q37 0 63.5 -4t35.5 -9l9 -5v-256q-45 0 -70.5 -13.5t-51.5 -51.5l-84 -127l112 -240q39 -84 127 -84v-256q-68 -29 -125 -29q-100 0 -181 45t-140 176z" />
<glyph unicode="l" horiz-adv-x="600" d="M82 281v1194l369 61v-1190q0 -55 29.5 -72.5t88.5 -17.5v-256q-81 -18 -155 -19h-8q-70 0 -147 18q-81 19 -129 91t-48 191z" />
<glyph unicode="m" horiz-adv-x="1587" d="M20 758v246q66 30 145 30h5q174 0 258 -127h8q82 137 256 137q178 0 258 -139h8q92 139 261 139q141 0 219 -92t78 -266v-686h-369v670q0 78 -64 78q-33 0 -55 -27t-24 -59v-662h-369v664q0 84 -60 84q-33 0 -56 -21.5t-27 -52.5v-674h-369v651q0 59 -22.5 83t-80.5 24z " />
<glyph unicode="n" horiz-adv-x="1095" d="M20 758v246q66 30 145 30h5q178 0 262 -133h4q90 143 275 143q139 0 226 -90t87 -276v-678h-369v668q1 80 -71 80q-45 0 -67.5 -30t-24.5 -59v-659h-369v651q0 59 -22.5 83t-80.5 24z" />
<glyph unicode="o" horiz-adv-x="1017" d="M66 338q-3 81 -3 165t3 171q6 166 132 268t312 102t310 -102t132 -268q3 -78 3 -162.5t-3 -175.5q-6 -166 -130 -266.5t-312 -100.5t-312 100.5t-132 268.5zM434 354q2 -39 23.5 -63.5t52.5 -24.5t51.5 24.5t22.5 63.5q3 73 3 150.5t-3 159.5q-2 35 -22.5 59.5 t-51.5 24.5t-52.5 -25t-23.5 -59q-3 -77 -3 -154.5t3 -155.5z" />
<glyph unicode="p" horiz-adv-x="1083" d="M20 758v256q68 12 140 17q9 1 19 1q62 0 129 -28q77 -33 120 -103q4 6 11 15.5t33 34t54.5 44t76.5 34.5t99 15q139 0 224.5 -92t91.5 -260q3 -83 3 -170t-3 -178q-6 -186 -105.5 -280.5t-261.5 -94.5q-43 0 -83 8.5t-58 16.5l-18 8v-514h-369v1163q0 57 -23.5 82 t-79.5 25zM492 350q0 -39 21.5 -61.5t55.5 -22.5q37 0 58.5 23.5t21.5 58.5v307q0 92 -71 93q-37 0 -61.5 -29t-24.5 -68v-301z" />
<glyph unicode="q" horiz-adv-x="1036" d="M66 297q-4 67 -4 158t4 207q6 188 131 285t317 97q115 0 224.5 -18t162.5 -38l53 -19v-1481h-368v543q-61 -61 -197 -62q-133 0 -224 87t-99 241zM434 344q2 -35 21.5 -56.5t50.5 -21.5q33 0 56.5 22.5t23.5 53.5v397q-16 8 -72 9q-78 0 -80 -82q-2 -104 -2 -184t2 -138z " />
<glyph unicode="r" horiz-adv-x="788" d="M20 758v246q66 30 145 30h5q219 0 264 -237h6q0 100 58.5 173.5t148.5 73.5q94 0 141 -51l-20 -276q-25 2 -70 2q-98 0 -151 -33t-55 -123v-563h-369v651q0 59 -22.5 83t-80.5 24z" />
<glyph unicode="s" horiz-adv-x="929" d="M41 338l338 10q2 -37 21.5 -59.5t52.5 -22.5q31 0 49 16.5t18 41.5q0 12 -3 20t-12 15.5t-17.5 12.5t-27 10t-31.5 9t-43 11.5t-50 13.5q-66 18 -110 36.5t-90 50.5t-68.5 83t-22.5 121q0 154 125 245.5t311 91.5q183 0 295 -105q98 -92 98 -232q0 -20 -2 -41l-337 -11 q0 92 -62 93q-59 0 -59 -56q0 -35 29.5 -54.5t113.5 -43.5q72 -20 104.5 -30.5t86 -36t78 -52t44 -74t19.5 -108.5q0 -133 -121 -228.5t-305 -95.5q-178 0 -296 93.5t-126 275.5z" />
<glyph unicode="t" horiz-adv-x="772" d="M-10 758v256h141v223l369 61v-284h243v-256h-243v-352q0 -82 39 -118t116 -36q72 0 97 4l10 -256q-88 -31 -223 -31q-80 0 -148.5 18.5t-129 59.5t-95.5 118t-35 181v412h-141z" />
<glyph unicode="u" horiz-adv-x="1099" d="M72 358v605l368 61v-653q0 -104 76 -105q33 0 53.5 21.5t24.5 56.5v621l369 59v-670q0 -61 19 -79.5t87 -18.5v-256q-60 -24 -132 -24q-44 0 -92 8q-128 24 -194 114q-12 -20 -30.5 -42.5t-81 -54.5t-140.5 -32q-150 0 -238.5 97.5t-88.5 291.5z" />
<glyph unicode="v" horiz-adv-x="958" d="M-20 1014h395l80 -455l32 -207h7l36 207l86 455h363l-277 -1014h-436z" />
<glyph unicode="w" horiz-adv-x="1529" d="M-10 1014h395l55 -465l17 -158h6l24 156l103 467h352l105 -469l26 -152h10l21 154l63 467h373l-237 -1014h-429l-77 395l-33 223h-8l-31 -223l-86 -395h-414z" />
<glyph unicode="x" horiz-adv-x="1034" d="M-20 0l323 506l-321 508h421l125 -275l134 275h385l-302 -506l310 -508h-418l-137 248l-142 -248h-378z" />
<glyph unicode="y" horiz-adv-x="985" d="M-10 1014h389l84 -461l29 -180h4l34 180l97 461h368l-483 -1526h-369l170 522z" />
<glyph unicode="z" horiz-adv-x="911" d="M51 236l371 501h-371v277h789l12 -258l-354 -480h383v-276h-820z" />
<glyph unicode="{" horiz-adv-x="735" d="M20 551v133q136 31 136 166v362q0 104 42 174t104.5 96.5t133 30t132 -14t96.5 -46.5l20 -125q-94 0 -137 -31.5t-43 -138.5v-272q0 -109 -72 -188t-172 -83q100 -6 172 -85.5t72 -188.5v-268q0 -106 43 -138t137 -32l-20 -125q-45 -39 -128 -54.5t-169 -1t-148.5 90 t-62.5 204.5v369q0 135 -136 166z" />
<glyph unicode="|" horiz-adv-x="491" d="M102 -512v2048h287v-2048h-287z" />
<glyph unicode="}" horiz-adv-x="735" d="M51 -98q94 0 137 31.5t43 138.5v268q0 109 71 188.5t173 85.5q-102 4 -173 83t-71 188v272q0 106 -43 138t-137 32l21 125q35 29 96 46.5t132 14t133.5 -30t104.5 -96.5t42 -174v-362q0 -135 135 -166v-133q-135 -31 -135 -166v-369q0 -129 -62.5 -204.5t-148.5 -90 t-169 1t-128 54.5z" />
<glyph unicode="~" horiz-adv-x="815" d="M52 563.5q-1 73.5 49.5 132t134.5 58.5q74 0 200.5 -41t149.5 -41q8 0 15 4t12 8t11.5 14.5t8.5 15.5t8 19.5t8 18.5l82 -27q29 -66 32 -139.5t-44 -132t-131 -58.5q-61 0 -197.5 41t-152.5 41q-39 0 -74 -80l-82 27q-29 66 -30 139.5z" />
<glyph unicode="&#xa2;" horiz-adv-x="958" d="M66 352q-6 180 0 328q6 129 85.5 219t208.5 125v141l287 74v-211q135 -33 204.5 -130.5t59.5 -242.5l-338 -10q6 45 -12 74t-53 29q-72 0 -74 -82q-6 -152 0 -314q2 -39 24.5 -62.5t51.5 -23.5q37 0 55.5 25.5t14.5 66.5l338 -10q-4 -129 -75 -226t-196 -134v-150 l-287 -74v224q-133 33 -211.5 127t-82.5 237z" />
<glyph unicode="&#xa3;" horiz-adv-x="1214" d="M51 543l37 256h133q-2 70 -2 184q0 233 137.5 367.5t360.5 134.5q213 0 337 -132t107 -349l-379 -11q12 154 -86 154q-88 0 -88 -143q0 -41 4 -205h226l-37 -256h-183v-45q0 -121 -88 -219q137 49 236 49h408l-37 -328h-1045l-33 215q6 2 18.5 5t41 17.5t51.5 35t41 60.5 t18 91q0 72 -2 119h-176z" />
<glyph unicode="&#xa5;" horiz-adv-x="1271" d="M0 1454h434l164 -420l43 -141l45 141l170 420h416l-369 -772h205v-195h-272v-71h272v-195h-272v-221h-410v221h-285v195h285v71h-285v195h219z" />
<glyph unicode="&#xa9;" horiz-adv-x="1748" d="M113 669.5q0 317.5 222 541t539.5 223.5t540.5 -223.5t223 -541t-223 -539.5t-540.5 -222t-539.5 222t-222 539.5zM358 671.5q0 -239.5 145.5 -394t375.5 -154.5q227 0 370.5 154.5t143.5 394t-143.5 394.5t-370.5 155q-229 0 -375 -155t-146 -394.5zM543 573 q-6 80 0 209q8 139 99 216t243 77q156 0 245 -77t87 -216l-267 -10q0 102 -76 102q-63 0 -67 -77q-2 -104 0 -226q4 -82 74 -82q39 0 60.5 29t21.5 72l264 -10q-2 -135 -101.5 -214t-246.5 -79q-313 0 -336 286z" />
<glyph unicode="&#xad;" d="M31 369v297h518v-297h-518z" />
<glyph unicode="&#xae;" horiz-adv-x="1628" d="M51 669.5q0 317.5 222.5 541t539.5 223.5t540.5 -223.5t223.5 -541t-223.5 -539.5t-540.5 -222t-539.5 222t-222.5 539.5zM297 671.5q0 -239.5 145.5 -394t374.5 -154.5q227 0 370.5 154.5t143.5 394t-143.5 394.5t-370.5 155q-229 0 -374.5 -155t-145.5 -394.5zM502 307 v748h332q158 0 241.5 -63.5t83.5 -164.5q0 -125 -137 -200q35 -33 41 -49l115 -271h-287l-105 275h-18v-275h-266zM768 723h45q80 0 80 70q0 59 -82 59h-43v-129z" />
<glyph unicode="&#xb4;" horiz-adv-x="612" d="M82 1157l154 297h409l-321 -297h-242z" />
<glyph unicode="&#x2000;" horiz-adv-x="798" />
<glyph unicode="&#x2001;" horiz-adv-x="1597" />
<glyph unicode="&#x2002;" horiz-adv-x="798" />
<glyph unicode="&#x2003;" horiz-adv-x="1597" />
<glyph unicode="&#x2004;" horiz-adv-x="532" />
<glyph unicode="&#x2005;" horiz-adv-x="399" />
<glyph unicode="&#x2006;" horiz-adv-x="266" />
<glyph unicode="&#x2007;" horiz-adv-x="266" />
<glyph unicode="&#x2008;" horiz-adv-x="199" />
<glyph unicode="&#x2009;" horiz-adv-x="319" />
<glyph unicode="&#x200a;" horiz-adv-x="88" />
<glyph unicode="&#x2010;" d="M31 369v297h518v-297h-518z" />
<glyph unicode="&#x2011;" d="M31 369v297h518v-297h-518z" />
<glyph unicode="&#x2012;" d="M31 369v297h518v-297h-518z" />
<glyph unicode="&#x2013;" horiz-adv-x="966" d="M31 369v297h905v-297h-905z" />
<glyph unicode="&#x2014;" horiz-adv-x="1200" d="M31 369v297h1138v-297h-1138z" />
<glyph unicode="&#x2018;" horiz-adv-x="512" d="M51 1026q0 115 42 205t107.5 141t129.5 79t123 34l69 -105q-98 -29 -154.5 -81t-64.5 -90l-8 -38q78 -4 130 -60t52 -144q0 -90 -61.5 -143.5t-141.5 -53.5q-104 0 -163.5 71.5t-59.5 184.5z" />
<glyph unicode="&#x2019;" horiz-adv-x="512" d="M10 885q98 29 154.5 81t64.5 90l9 38q-78 4 -130.5 60t-52.5 144q0 90 61.5 143.5t141.5 53.5q104 0 163.5 -71.5t59.5 -184.5q0 -115 -42 -205t-107.5 -141t-129 -79t-122.5 -34z" />
<glyph unicode="&#x201c;" horiz-adv-x="968" d="M51 1026q0 115 42 205t107.5 141t129.5 79t123 34l69 -105q-98 -29 -154.5 -81t-64.5 -90l-8 -38q78 -4 130 -60t52 -144q0 -90 -61.5 -143.5t-141.5 -53.5q-104 0 -163.5 71.5t-59.5 184.5zM508 1026q0 115 42 205t107.5 141t129 79t122.5 34l70 -105 q-61 -18 -107.5 -45.5t-69 -55.5t-34.5 -52.5t-14 -39.5l-2 -16q78 -4 130 -60t52 -144q0 -90 -61.5 -143.5t-141.5 -53.5q-104 0 -163.5 71.5t-59.5 184.5z" />
<glyph unicode="&#x201d;" horiz-adv-x="970" d="M10 887q98 29 154.5 81t64.5 90l9 38q-78 4 -130.5 60t-52.5 144q0 90 61.5 143.5t141.5 53.5q104 0 163.5 -71.5t59.5 -184.5q0 -115 -42 -205t-107.5 -141t-129 -79t-122.5 -34zM469 887q98 29 154.5 81t64.5 90l8 38q-78 4 -130 60t-52 144q0 90 61.5 143.5 t141.5 53.5q104 0 163.5 -71.5t59.5 -184.5q0 -115 -42 -205t-107.5 -141t-129 -79t-122.5 -34z" />
<glyph unicode="&#x2022;" horiz-adv-x="833" d="M102 614q0 131 92.5 224.5t219.5 93.5q129 0 223 -93.5t94 -224.5q0 -125 -94 -216t-223 -91q-127 0 -219.5 91t-92.5 216z" />
<glyph unicode="&#x2026;" horiz-adv-x="1597" d="M51 164q0 94 57.5 152.5t145.5 58.5t146.5 -58.5t58.5 -152.5q0 -90 -58.5 -147.5t-146.5 -57.5q-86 0 -144.5 57.5t-58.5 147.5zM598 164q0 94 57.5 152.5t145.5 58.5t146.5 -58.5t58.5 -152.5q0 -90 -58.5 -147.5t-146.5 -57.5q-86 0 -144.5 57.5t-58.5 147.5z M1139 164q0 94 57 152.5t145.5 58.5t146.5 -58.5t58 -152.5q0 -90 -58 -147.5t-147 -57.5q-86 0 -144 57.5t-58 147.5z" />
<glyph unicode="&#x202f;" horiz-adv-x="319" />
<glyph unicode="&#x205f;" horiz-adv-x="399" />
<glyph unicode="&#x20ac;" horiz-adv-x="1216" d="M0 485l51 195h129v72h-168l51 194h117l4 64q8 221 153.5 348t354.5 127q137 0 241.5 -46t169 -155.5t60.5 -269.5l-358 -10q0 143 -112.5 143t-119.5 -156q-2 -14 -2 -45h355l-49 -194h-308v-72h293l-51 -195h-238v-10q6 -168 117 -168q55 0 85 39t30 105l358 -11 q0 -219 -127 -345t-356 -126q-225 0 -357.5 131t-138.5 355q0 6 -1 16t-1 14h-182z" />
<glyph unicode="&#x2122;" horiz-adv-x="1662" d="M20 1219v235h685v-235h-199v-512h-287v512h-199zM764 707v747h217l188 -276l189 276h223v-747h-287v329l-2 2l-114 -170h-35l-113 174v-335h-266z" />
<glyph unicode="&#xe000;" horiz-adv-x="1014" d="M0 1015h1015v-1015h-1015v1015z" />
</font>
</defs>
</svg>
