<?xml version="1.0" standalone="no"?>
<!DOCTYPE svg PUBLIC "-//W3C//DTD SVG 1.1//EN" "http://www.w3.org/Graphics/SVG/1.1/DTD/svg11.dtd" >
<svg xmlns="http://www.w3.org/2000/svg">
<metadata>
This is a custom SVG webfont generated by Font Squirrel.
Copyright   : Font designed by Loic Sander 2012 Distributed under the terms of the SIL OFL Licence Free for commercial use This font file can me modified at will under the conditions that any modification made is identified as a modifed version and the author named in the filename or accompanying info No modified version can be distributed without notice that it isnt the original file
Designer    : Loic Sander
Foundry     : Loic Sander
</metadata>
<defs>
<font id="FengardoNeueRegular" horiz-adv-x="694" >
<font-face units-per-em="2048" ascent="1475" descent="-573" />
<missing-glyph horiz-adv-x="593" />
<glyph unicode=" "  horiz-adv-x="593" />
<glyph unicode="&#x09;" horiz-adv-x="593" />
<glyph unicode="&#xa0;" horiz-adv-x="593" />
<glyph unicode="!" horiz-adv-x="442" d="M92 94q0 55 37 93t90 38q55 0 93 -37.5t38 -93.5q0 -53 -38 -89t-93 -36q-53 0 -90 36t-37 89zM123 1434l199 30l-39 -1106h-123z" />
<glyph unicode="&#x22;" horiz-adv-x="655" d="M96 1415l180 70v-543h-116q-44 272 -64 473zM379 942v473l180 70l-63 -543h-117z" />
<glyph unicode="#" horiz-adv-x="1187" d="M45 375l8 108h266l29 287h-270l6 109h274l37 350h127l-39 -350h277l37 350h125l-37 -350h258l-6 -109h-260l-27 -287h262l-8 -108h-266l-37 -375h-125l37 375h-277l-39 -375h-125l37 375h-264zM446 483h277l27 287h-275z" />
<glyph unicode="$" horiz-adv-x="1134" d="M160 430l153 10q10 -115 90 -170t197 -55q102 0 163.5 48t61.5 140q0 27 -6 49.5t-14 39t-28.5 34t-34 27.5t-47 26.5t-51 24.5t-65 26.5t-69.5 28.5q-166 70 -247 149t-81 226q0 141 92.5 234.5t239.5 111.5v162l143 55v-219q137 -23 222.5 -110.5t76.5 -241.5l-153 -10 q0 106 -62.5 165.5t-165.5 59.5q-92 0 -155.5 -48t-63.5 -144q0 -41 18.5 -76t41 -56.5t69.5 -48t73 -37t85 -34.5q197 -80 276.5 -160t79.5 -221q0 -145 -95 -233.5t-236 -106.5v-154l-144 -55v209q-158 18 -260 109t-104 245z" />
<glyph unicode="%" horiz-adv-x="1794" d="M147 1171.5q0 131.5 85 212t218.5 80.5t218.5 -80.5t85 -212.5q0 -129 -88 -210.5t-215 -81.5q-133 0 -218.5 80.5t-85.5 212zM303 0l1016 1434h164l-1014 -1434h-166zM303 1171.5q0 -79.5 41 -123.5t106.5 -44t107.5 44t42 123.5t-41 124.5t-108 45q-66 0 -107 -45 t-41 -124.5zM1040 262q0 131 85 212t218.5 81t218.5 -81t85 -212q0 -129 -88.5 -211t-215.5 -82q-133 0 -218 81t-85 212zM1196 262q0 -80 41 -124t106.5 -44t107.5 44t42 124t-41 125t-109 45q-66 0 -106.5 -45t-40.5 -125z" />
<glyph unicode="&#x26;" horiz-adv-x="1376" d="M133 416q0 147 83 241.5t208 137.5q-94 27 -156.5 109.5t-62.5 199.5q0 154 113.5 257t308.5 103q178 0 287.5 -105.5t97.5 -273.5l-164 -10q0 109 -61.5 172.5t-163.5 63.5q-109 0 -171.5 -53.5t-62.5 -153.5q0 -228 242 -240h43v-143h-45q-139 0 -225.5 -89t-86.5 -216 q0 -139 92.5 -216t241.5 -77q178 0 268.5 116.5t90.5 315.5v166h-164v143h500v-143h-177q4 -66 5 -166q0 -246 -136.5 -416t-386.5 -170q-231 0 -374.5 122t-143.5 325z" />
<glyph unicode="'" horiz-adv-x="374" d="M96 1415l183 70l-39 -543h-117q-25 344 -27 473z" />
<glyph unicode="(" horiz-adv-x="712" d="M147 602q0 240 84 486.5t244 451.5l111 -65q-129 -170 -207 -398.5t-78 -470.5q0 -236 77 -453t206 -389l-109 -75q-156 188 -242 427.5t-86 485.5z" />
<glyph unicode=")" horiz-adv-x="712" d="M139 1475l111 65q160 -205 244 -451.5t84 -486.5q0 -246 -86 -485.5t-242 -427.5l-109 75q129 172 206 389.5t77 452.5q0 242 -78 470.5t-207 398.5z" />
<glyph unicode="*" horiz-adv-x="819" d="M59 1161l43 123l252 -100q-14 205 -14 280l143 9l-20 -291q154 66 254 102l43 -123q-16 -4 -68.5 -20.5t-103.5 -31.5t-90 -24l190 -235l-110 -74q-135 193 -172 254q-27 -45 -91.5 -141t-74.5 -113l-109 74q55 74 188 235q-39 8 -89 23.5t-101.5 31t-69.5 21.5z" />
<glyph unicode="+" horiz-adv-x="1163" d="M76 461v153h411v473h164v-473h436v-153h-436v-457h-164v457h-411z" />
<glyph unicode="," horiz-adv-x="438" d="M-6 -242q61 16 106 45t67.5 56.5t36 53.5t15.5 42l2 16q-45 -6 -89 25t-44 102q0 55 39 91t90 36q66 0 105.5 -44t39.5 -122q0 -137 -91 -243t-228 -131z" />
<glyph unicode="-" d="M76 461v153h542v-153h-542z" />
<glyph unicode="." horiz-adv-x="458" d="M96 100q0 57 37 96.5t94.5 39.5t96 -39t38.5 -97q0 -55 -38.5 -93t-96 -38t-94.5 38t-37 93z" />
<glyph unicode="/" horiz-adv-x="813" d="M-27 -287l719 1823h148l-713 -1823h-154z" />
<glyph unicode="0" horiz-adv-x="1124" d="M123 387q-8 174 0 340q10 190 132 300t308 110q184 0 306 -109.5t132 -300.5q8 -166 0 -340q-8 -195 -127.5 -306.5t-310 -111.5t-311.5 112t-129 306zM307 385q4 -121 78 -191.5t178.5 -70.5t177 70.5t76.5 191.5q6 180 0 342q-4 125 -75.5 190.5t-178 65.5 t-179.5 -65.5t-77 -190.5q-6 -162 0 -342z" />
<glyph unicode="1" horiz-adv-x="811" d="M137 1034l322 82l63 -8v-969l193 -6v-133h-574v133l197 6v793l-184 -6z" />
<glyph unicode="2" horiz-adv-x="1028" d="M109 109q20 16 122.5 93t162 128t140 130t120.5 154.5t40 147.5q0 221 -194 221q-94 0 -157.5 -61.5t-70.5 -176.5l-163 -10q-12 178 109.5 290t289.5 112q170 0 270.5 -95.5t100.5 -255.5q0 -168 -149.5 -334.5t-360.5 -297.5h573v-154h-813z" />
<glyph unicode="3" horiz-adv-x="1046" d="M55 41l164 10q16 -109 91 -167t188 -58q121 0 199.5 72.5t78.5 218.5q0 139 -79 210.5t-203 71.5q-33 0 -62 -3t-42 -6l-13 -3l-31 94l373 471h-606v154h796l21 -123l-383 -461q2 0 10 1t12 1q164 0 278 -99t114 -304q0 -211 -132.5 -330t-330.5 -119q-184 0 -305 102.5 t-138 266.5z" />
<glyph unicode="4" horiz-adv-x="1189" d="M127 123l410 1032l194 45l-416 -1046h404v450l174 72v-522h231v-144h-231v-317h-174v317h-567z" />
<glyph unicode="5" horiz-adv-x="1062" d="M55 41l164 10q16 -109 91 -167t192 -58q119 0 189.5 78t70.5 227q0 299 -258 299q-70 0 -124 -20.5t-75 -41.5l-20 -22l-150 10l80 750h664v-154h-510l-58 -458q98 80 246 79q162 0 275.5 -110.5t113.5 -331.5q0 -209 -126 -334t-318 -125q-180 0 -309.5 102.5 t-137.5 266.5z" />
<glyph unicode="6" horiz-adv-x="1144" d="M133 461q-12 274 0 514q10 205 132 332t329 127q166 0 277.5 -98.5t105.5 -280.5l-164 -11q-2 109 -59.5 172.5t-169.5 63.5q-127 0 -197 -78t-76 -227q-6 -162 -4 -322q41 92 128 149.5t198 57.5q170 0 287.5 -106.5t117.5 -321.5q0 -213 -120.5 -338t-317.5 -125 q-205 0 -331 133.5t-136 358.5zM313 422q12 -139 86 -219t201 -80q119 0 186.5 80t67.5 229q0 145 -72.5 215t-183.5 70q-117 0 -202 -82t-83 -213z" />
<glyph unicode="7" horiz-adv-x="974" d="M25 952v154h864l31 -121l-590 -1292h-195l588 1259h-698z" />
<glyph unicode="8" horiz-adv-x="1185" d="M127 383q0 117 68.5 213t179.5 133q-215 100 -215 305q0 190 127 295t307 105t306 -104.5t126 -295.5q0 -205 -215 -305q111 -37 179.5 -133t68.5 -213q0 -180 -127 -297t-338 -117t-339 117t-128 297zM311 383q0 -113 77 -186.5t206 -73.5t204.5 73.5t75.5 186.5 t-73.5 187.5t-206.5 74.5t-208 -74.5t-75 -187.5zM344 1036q0 -106 66.5 -177t183.5 -71t182.5 71t65.5 177q0 104 -66.5 174t-181.5 70t-182.5 -69.5t-67.5 -174.5z" />
<glyph unicode="9" horiz-adv-x="1144" d="M106 676q0 209 128 335t321 126t321 -126t136 -366q10 -317 0 -504q-12 -231 -136 -350t-317 -119q-176 0 -307 100.5t-135 268.5l164 10q41 -225 278 -225q256 0 275 315q4 80 4 273q-39 -88 -124 -136.5t-194 -48.5q-168 0 -291 116t-123 331zM291 676 q0 -145 76.5 -219t187.5 -74q125 0 199.5 74.5t79.5 185.5v23q-6 156 -83 236.5t-196 80.5q-115 0 -189.5 -82t-74.5 -225z" />
<glyph unicode=":" horiz-adv-x="450" d="M90 100q0 57 37 96.5t94.5 39.5t96 -39t38.5 -97q0 -55 -38.5 -93t-96 -38t-94.5 38t-37 93zM90 766q0 57 37 96t94.5 39t96 -39t38.5 -96q0 -55 -38.5 -93t-96 -38t-94.5 38t-37 93z" />
<glyph unicode=";" horiz-adv-x="452" d="M-6 -242q61 16 106 45t67.5 56.5t36 53.5t15.5 42l2 16q-45 -6 -89 25t-44 102q0 55 39 91t90 36q66 0 105.5 -44t39.5 -122q0 -137 -91 -243t-228 -131zM88 766q0 57 37 96t94 39t96 -39t39 -96q0 -55 -39 -93t-96 -38t-94 38t-37 93z" />
<glyph unicode="&#x3c;" horiz-adv-x="1030" d="M137 477v49l715 508l70 -110l-580 -400v-20l582 -412l-74 -110z" />
<glyph unicode="=" horiz-adv-x="1103" d="M96 252v154h912v-154h-912zM96 682v154h912v-154h-912z" />
<glyph unicode="&#x3e;" horiz-adv-x="1030" d="M127 92l582 397v19l-580 416l80 110l704 -508v-49l-712 -495z" />
<glyph unicode="?" horiz-adv-x="909" d="M68 1044q-14 180 100.5 300t300.5 120q152 0 258.5 -100t106.5 -256q0 -109 -50.5 -197t-152.5 -202q-78 -88 -95.5 -136.5t-17.5 -142.5v-72h-141l-4 58q-8 137 15.5 207.5t113.5 181.5q100 122 122 172q25 57 25 123q0 98 -51 154.5t-135 56.5q-106 0 -166.5 -67.5 t-65.5 -188.5zM322 94q0 55 36.5 93t90.5 38q55 0 93 -37.5t38 -93.5q0 -53 -38 -89t-93 -36q-53 0 -90 36t-37 89z" />
<glyph unicode="@" horiz-adv-x="1961" d="M147 471q0 418 255 705.5t649 287.5q356 0 554.5 -215t198.5 -553q0 -313 -131 -484t-315 -171q-117 0 -194 56.5t-91 166.5q-2 -6 -8 -17t-28.5 -39t-48 -49.5t-70 -39t-93.5 -17.5q-121 0 -189.5 92.5t-47.5 276.5q10 96 49 256q84 348 405 348q160 0 301 -88 l-114 -635q-31 -178 129 -178q123 0 208 136t85 388q0 279 -145.5 456t-454.5 177q-313 0 -531.5 -244.5t-218.5 -615.5q0 -180 55.5 -316.5t153.5 -215t218 -117.5t261 -39q109 0 202 20.5t132 41.5l39 22l47 -103q-12 -12 -40 -31.5t-136.5 -51t-243.5 -31.5 q-373 0 -607.5 205.5t-234.5 615.5zM752 471q-12 -127 18.5 -181t110.5 -54q78 0 129 49t63 112l98 516q-43 29 -133 29q-188 0 -237 -215q-41 -170 -49 -256z" />
<glyph unicode="A" horiz-adv-x="1239" d="M31 0l487 1380l-16 54h205l501 -1434h-194l-129 389h-539l-131 -389h-184zM397 543h439l-172 522l-48 162l-47 -166z" />
<glyph unicode="B" horiz-adv-x="1198" d="M184 0v1434q223 2 394 2q487 0 487 -346q0 -121 -76 -212.5t-198 -125.5v-2q135 -31 220 -117t85 -225q0 -197 -136.5 -304.5t-400.5 -107.5zM369 154q86 -4 188 -4q174 0 264 51t90 198q0 268 -352 269h-190v-514zM369 811h182q170 0 250 47t80 197q0 123 -74 175 t-223 52l-215 -2v-469z" />
<glyph unicode="C" horiz-adv-x="1179" d="M139 430q-5 141 -5 281.5t5 279.5q10 213 145.5 343t358.5 130q213 0 333 -116q110 -108 110 -266q0 -13 -1 -27l-163 -11q0 119 -75 193t-208 74q-147 0 -228 -81t-87 -239q-5 -126 -5 -266t5 -293q4 -143 91 -226t216 -83q139 0 218 73.5t83 202.5l164 -10v-11 q0 -169 -124 -287q-128 -122 -341 -122q-215 0 -349.5 121t-142.5 340z" />
<glyph unicode="D" horiz-adv-x="1263" d="M184 0v1434q145 10 299 10q606 0 639 -475q7 -108 7 -227.5t-7 -249.5q-14 -262 -194 -382t-465 -120zM369 147q57 -4 127 -4q422 0 442 340q7 122 7 241t-7 234q-23 332 -434 332l-135 -4v-1139z" />
<glyph unicode="E" horiz-adv-x="1064" d="M184 0v1434h779v-154h-594v-471h534v-154h-534v-501h594v-154h-779z" />
<glyph unicode="F" horiz-adv-x="960" d="M184 0v1434h766v-154h-581v-512h522v-154h-522v-614h-185z" />
<glyph unicode="G" horiz-adv-x="1239" d="M139 451q-6 114 -6 248.5t6 291.5q10 229 150.5 351t353.5 122q207 0 329 -118q112 -107 112 -263q0 -14 -1 -28l-163 -11q0 117 -77 192t-204 75q-143 0 -226 -78t-89 -242q-4 -141 -4 -278.5t4 -270.5q4 -154 97 -237.5t230 -83.5q150 0 226.5 90t83.5 242l-3 151h-311 v144h486l2 -293q-10 -221 -135.5 -353.5t-354.5 -132.5q-211 0 -352 125t-154 357z" />
<glyph unicode="H" horiz-adv-x="1374" d="M184 0v1434h185v-635h637v635h184v-1434h-184v645h-637v-645h-185z" />
<glyph unicode="I" horiz-adv-x="552" d="M184 0v1434h185v-1434h-185z" />
<glyph unicode="J" horiz-adv-x="1060" d="M74 389l162 10v-8q0 -121 57 -193q59 -75 184 -75q221 0 232 276v1035h184q3 -417 3 -675.5t-3 -359.5q-6 -193 -113.5 -311.5t-302.5 -118.5q-193 0 -303 118q-101 107 -101 269q0 16 1 33z" />
<glyph unicode="K" horiz-adv-x="1122" d="M184 0v1434h185v-1434h-185zM379 729l534 705h211l-538 -686q29 -33 152.5 -194t269 -351.5t155.5 -202.5h-215z" />
<glyph unicode="L" horiz-adv-x="960" d="M184 0v1434h185v-1280h581v-154h-766z" />
<glyph unicode="M" horiz-adv-x="1599" d="M184 0v1434h187l364 -701l53 -131l56 131l393 701h178v-1434h-184v993l8 158h-4l-64 -168l-356 -612h-70l-325 612l-70 168h-4l12 -160v-991h-174z" />
<glyph unicode="N" horiz-adv-x="1382" d="M184 0v1434h187l551 -930l102 -228v1158h174v-1434h-184l-559 948l-97 217v-1165h-174z" />
<glyph unicode="O" horiz-adv-x="1269" d="M139 442q-6 142 -6 281t6 274q8 213 143.5 340t352.5 127t351 -127t144 -340q6 -135 6 -274t-6 -281q-10 -215 -144 -344t-351 -129t-351 129t-145 344zM324 444q4 -150 88 -235.5t223 -85.5t223 86t88 235q4 125 4 262.5t-4 286.5q-4 150 -87 234t-224 84t-224 -84 t-87 -234t-4 -287t4 -262z" />
<glyph unicode="P" horiz-adv-x="1136" d="M184 0v1434q180 2 326 2q276 0 425.5 -97.5t149.5 -345.5q0 -217 -140 -340t-415 -123l-161 2v-532h-185zM369 688q82 -2 170 -2q178 0 270 67.5t92 237.5q0 291 -377 291l-155 -2v-592z" />
<glyph unicode="Q" horiz-adv-x="1269" d="M139 442q-6 142 -6 281t6 274q8 213 143.5 340t352.5 127t351 -127t144 -340q6 -135 6 -274t-6 -281q-8 -188 -113.5 -312t-279.5 -153q33 -4 217 -59q220 -65 277 -65h2q35 0 47 2v-103q-35 -47 -111 -47q-90 0 -299 98q-72 35 -150.5 76t-126.5 65.5t-81 37.5 q-166 35 -265.5 156.5t-107.5 303.5zM324 444q4 -150 88 -235.5t223 -85.5t223 86t88 235q4 125 4 262.5t-4 286.5q-4 150 -87 234t-224 84t-224 -84t-87 -234t-4 -287t4 -262z" />
<glyph unicode="R" horiz-adv-x="1208" d="M184 0v1434q205 2 365 2q254 0 395 -91.5t141 -310.5q0 -78 -27.5 -144.5t-65.5 -106.5t-86 -69.5t-81.5 -43t-58.5 -17.5v-4q33 -6 100 -123l301 -526h-202l-342 610h-254v-610h-185zM369 754q55 -2 133 -2q76 0 125 3t106.5 19.5t90 44t55 80.5t22.5 129 q0 254 -350 254l-182 -2v-526z" />
<glyph unicode="S" horiz-adv-x="1148" d="M113 391l163 10q16 -123 103.5 -200.5t214.5 -77.5q121 0 194.5 56.5t73.5 160.5q0 43 -10 79t-38 65.5t-47 48t-68.5 43t-70 33.5t-79.5 34q-92 39 -145.5 66.5t-119 77t-96 118t-30.5 158.5q0 174 124 287.5t308 113.5q198 0 316 -108q103 -95 104 -255q0 -22 -2 -44 l-164 -10q0 264 -254 264q-109 0 -178.5 -57.5t-69.5 -161.5q0 -57 19.5 -101.5t63.5 -78t85 -56t115 -53.5q66 -27 86 -36t79.5 -39t83 -48t65.5 -54t59.5 -70t33 -81t15.5 -100q0 -182 -131.5 -294t-328 -112t-329.5 110.5t-145 311.5z" />
<glyph unicode="T" horiz-adv-x="1036" d="M20 1280v154h996v-154h-406v-1280h-184v1280h-406z" />
<glyph unicode="U" horiz-adv-x="1320" d="M176 455v979h184q-1 -398 -1 -643t1 -336q2 -160 81 -246t220.5 -86t219 86t80.5 246v979h184q1 -373 1 -617.5t-1 -361.5q-2 -229 -135 -357.5t-348.5 -128.5t-349.5 128t-136 358z" />
<glyph unicode="V" horiz-adv-x="1128" d="M10 1434h201l360 -1223l349 1223h198l-452 -1434h-201z" />
<glyph unicode="W" horiz-adv-x="1771" d="M51 1434h189l231 -942l47 -261h6l45 261l234 942h176l244 -942l47 -261h6l45 261l221 942h178l-362 -1434h-191l-245 973l-33 217h-6l-39 -217l-238 -973h-192z" />
<glyph unicode="X" horiz-adv-x="1142" d="M31 1434h213l334 -572l311 572h201l-408 -686l461 -748h-215l-359 621l-336 -621h-198l422 737z" />
<glyph unicode="Y" horiz-adv-x="1046" d="M-41 1434h201l332 -635l30 -76l31 76l326 635h198l-467 -859v-575h-184v575z" />
<glyph unicode="Z" horiz-adv-x="1138" d="M82 86l704 1194h-704v154h915q10 -25 21 -86l-705 -1194h723v-154h-934q-10 37 -20 86z" />
<glyph unicode="[" horiz-adv-x="608" d="M147 -287v1823h345v-123h-201v-1577h201v-123h-345z" />
<glyph unicode="\" horiz-adv-x="792" d="M-27 1536h150l696 -1823h-151z" />
<glyph unicode="]" horiz-adv-x="608" d="M129 -164h201v1577h-201v123h344v-1823h-344v123z" />
<glyph unicode="^" horiz-adv-x="1026" d="M96 932l361 502h108l365 -502h-164l-256 354l-254 -354h-160z" />
<glyph unicode="_" horiz-adv-x="923" d="M-6 -82h936v-154h-936v154z" />
<glyph unicode="`" horiz-adv-x="796" d="M96 1434h205l225 -297h-161z" />
<glyph unicode="a" horiz-adv-x="1005" d="M106 254q0 100 43.5 146t161.5 81q57 16 140.5 37t138.5 34t53 11v99q0 111 -37 165t-129 54q-86 0 -135 -47.5t-49 -126.5l-154 -13q-2 20 -2 38q1 120 91 200q104 92 259 92q158 0 244 -88t86 -264v-436q0 -72 29.5 -92.5t103.5 -20.5v-123q-18 -10 -58 -15 q-22 -3 -47 -3q-20 0 -40 2q-47 4 -87 39.5t-52 99.5h-7q-92 -154 -272 -154q-119 0 -200 78t-81 207zM281 274q0 -80 46 -126t122 -46q88 0 141 65.5t53 164.5v131q-174 -41 -262 -70q-59 -20 -79.5 -45.5t-20.5 -73.5z" />
<glyph unicode="b" horiz-adv-x="1081" d="M168 68v1396l174 72v-676h2q41 68 119 116t174 48q139 0 228 -89t96 -253q3 -87 3 -172.5t-3 -169.5q-4 -164 -121 -267.5t-281 -103.5q-92 0 -204.5 27t-186.5 72zM342 147q80 -34 194 -34h7q106 0 172.5 56t70.5 171q3 70 3 155.5t-3 184.5q-2 98 -59 149.5t-139 51.5 q-98 0 -172 -63.5t-74 -135.5v-535z" />
<glyph unicode="c" horiz-adv-x="921" d="M121 328q-3 87 -3 168.5t3 158.5q6 176 111.5 272.5t271.5 96.5t260 -84q90 -81 90 -212v-11l-154 -10q-4 88 -59 131t-137 43q-92 0 -148.5 -58.5t-60.5 -167.5q-3 -80 -3 -154.5t3 -142.5q8 -245 215 -245h2q88 0 137 51t62 133l143 -10v-16q0 -119 -86 -207 q-92 -94 -256 -95q-172 0 -279.5 92.5t-111.5 266.5z" />
<glyph unicode="d" horiz-adv-x="1114" d="M121 647q6 195 107.5 286t246.5 91q186 0 266 -154v594l174 72v-1300q0 -72 30 -92.5t104 -20.5v-123q-25 -10 -63 -14q-15 -2 -32 -2q-25 0 -52 4q-46 6 -86 40.5t-54 94.5h-4q-92 -154 -301 -154q-133 0 -229.5 87t-104.5 255q-5 93 -5 189q0 72 3 147zM295 637 q0 -268 2 -307q12 -217 207 -217q237 0 237 231v268q0 129 -65.5 199t-171.5 70q-94 0 -151.5 -64.5t-57.5 -179.5z" />
<glyph unicode="e" horiz-adv-x="966" d="M121 338q-3 92 -3 168t3 137q8 166 110.5 273.5t280.5 107.5q162 0 255 -92t93 -246q0 -98 -31.5 -129.5t-148.5 -56.5l-387 -66v-65q0 -123 59.5 -189.5t159.5 -66.5q90 0 140 51t63 133l143 -10v-15q0 -118 -88 -208q-94 -94 -258 -95q-178 0 -282.5 100.5 t-108.5 268.5zM293 547q147 18 289 49q66 14 85 32.5t19 61.5q0 88 -46 139.5t-128 51.5q-111 0 -165 -73t-54 -198v-63z" />
<glyph unicode="f" horiz-adv-x="608" d="M35 870v123h143v158q0 190 88 287.5t230 97.5q121 0 200 -72l-55 -116q-50 34 -130 34h-5q-80 0 -117 -55t-37 -186v-148h246v-123h-246v-870h-174v870h-143z" />
<glyph unicode="g" horiz-adv-x="1073" d="M86 -240q0 129 111 172l98 31l158 29v6l-97 12q-202 27 -202 171q0 71 47 118t108 66q-151 97 -151 294q0 161 107.5 263t273.5 102q94 0 194 -31h293q2 -16 2 -65t-2 -68q-74 0 -141.5 9.5t-98.5 18.5l-30 9l-2 -4q159 -81 159 -240q0 -53 -11.5 -98.5t-35 -84.5 t-59.5 -71q-106 -96 -272 -96q-80 0 -148 25q-80 -29 -80 -95q0 -59 74 -73q37 -6 175 -27.5t202 -34.5q256 -53 256 -278q0 -143 -124 -247.5t-343 -104.5q-197 0 -329 81.5t-132 210.5zM260 -213q0 -82 85 -129t202 -47q133 0 213 50t80 151q0 124 -170 153l-76 12 q-180 -47 -252 -83q-43 -23 -62.5 -43.5t-19.5 -63.5zM332 662q0 -100 52 -158t155 -58q92 0 146 55.5t54 160.5q0 102 -52 165.5t-148 63.5q-88 0 -147.5 -62.5t-59.5 -166.5z" />
<glyph unicode="h" horiz-adv-x="1101" d="M178 0v1464l174 72v-684h2q45 78 124 125t179 47q145 0 231.5 -89t86.5 -247v-688h-174v668q0 213 -197 213q-106 0 -177 -65.5t-75 -139.5v-676h-174z" />
<glyph unicode="i" horiz-adv-x="499" d="M106 1345.5q0 51.5 33 85t82 33.5q51 0 86 -33.5t35 -85t-34 -84t-87 -32.5q-49 0 -82 32.5t-33 84zM137 197v745l174 72v-756q0 -76 30 -105.5t103 -29.5v-123q-55 -15 -103 -15q-62 0 -113 25q-91 45 -91 187z" />
<glyph unicode="j" horiz-adv-x="499" d="M14 -391q98 2 131 25.5t33 99.5v1208l174 72v-1311q0 -133 -94 -195q-58 -37 -136 -37q-50 0 -108 15v123zM147 1345.5q0 51.5 33 85t82 33.5q51 0 86 -33.5t35 -85t-34 -84t-87 -32.5q-49 0 -82 32.5t-33 84z" />
<glyph unicode="k" horiz-adv-x="1005" d="M168 0v1466l174 70v-1536h-174zM373 575v7l305 352q63 70 149 70q45 0 91 -21v-113q-7 1 -15 1q-77 0 -135 -58q-27 -27 -78 -85t-88 -102l-37 -44q199 -309 252 -379q37 -47 66.5 -63.5t87.5 -16.5v-123q-29 -16 -92 -16q-66 0 -113.5 33.5t-108.5 117.5 q-63 86 -284 440z" />
<glyph unicode="l" horiz-adv-x="520" d="M147 195v1269l175 72v-1280q0 -76 29.5 -104.5t103.5 -28.5v-123q-53 -16 -101 -16q-60 0 -112 25q-94 44 -95 186z" />
<glyph unicode="m" horiz-adv-x="1630" d="M66 870v113q47 20 100 21q70 0 120 -37t62 -111h2q41 80 119 124t164 44q96 0 164.5 -47t93.5 -139h4q39 82 121 134t186 52q127 0 209 -85t82 -237v-702h-174v668q0 213 -170 213q-98 0 -159.5 -68t-61.5 -170v-643h-174v666q0 215 -170 215q-96 0 -159 -68t-63 -172 v-641h-174v776q0 57 -28.5 75.5t-93.5 18.5z" />
<glyph unicode="n" horiz-adv-x="1101" d="M66 870v113q47 20 100 21q70 0 120 -37t62 -111h2q102 168 309 168q139 0 222.5 -90t83.5 -246v-688h-174v668q0 213 -189 213q-100 0 -170 -66.5t-70 -134.5v-680h-174v776q0 57 -28.5 75.5t-93.5 18.5z" />
<glyph unicode="o" horiz-adv-x="1034" d="M123 338q-3 89 -3 169.5t3 151.5q8 164 115.5 264.5t279.5 100.5t278.5 -100.5t114.5 -264.5q4 -75 4 -155t-4 -166q-8 -164 -116.5 -266.5t-276.5 -102.5q-170 0 -279.5 102.5t-115.5 266.5zM297 344q4 -102 64.5 -166.5t156.5 -64.5q94 0 154.5 64.5t64.5 164.5 q3 73 3 151t-3 162q-4 100 -62.5 163t-156.5 63t-157.5 -61.5t-63.5 -164.5q-3 -85 -3 -163t3 -148z" />
<glyph unicode="p" horiz-adv-x="1091" d="M55 870v113q47 20 101 21q70 0 120 -37t62 -111h2q45 76 124 122t185 46q143 0 230.5 -94t91.5 -254q2 -80 2 -164t-2 -172q-6 -172 -98.5 -271.5t-233.5 -99.5q-195 0 -285 144h-2v-625h-174v1288q0 57 -28.5 75.5t-94.5 18.5zM352 344q0 -119 67.5 -175t180.5 -56 q86 0 138.5 56t58.5 163q4 86 4 172.5t-4 173.5q-10 203 -211 203q-86 0 -160 -62.5t-74 -136.5v-338z" />
<glyph unicode="q" horiz-adv-x="1060" d="M121 317q-2 75 -2 153t2 159q6 188 125 291.5t303 103.5q196 0 364 -82v-1454h-174v637h-2q-94 -156 -280 -156q-143 0 -236.5 99.5t-99.5 248.5zM295 338q2 -111 61.5 -168t155.5 -57q104 0 165.5 65.5t61.5 186.5v481q-84 35 -190.5 35t-178 -68t-75.5 -203 q-2 -68 -2 -136t2 -136z" />
<glyph unicode="r" horiz-adv-x="700" d="M66 870v113q47 20 100 21q70 0 121 -37t63 -111h4q45 168 217 168q37 0 67 -13.5t38 -27.5l-27 -123h-106q-102 0 -140 -62.5t-41 -209.5v-588h-174v776q0 57 -28.5 75.5t-93.5 18.5z" />
<glyph unicode="s" horiz-adv-x="907" d="M106 287l154 10q10 -80 65.5 -132t145.5 -52q74 0 120 34.5t46 98.5q0 61 -51 98t-168 78q-135 45 -210 112.5t-75 190.5q0 133 96.5 216t241.5 83q155 0 241 -92q73 -78 72 -180q0 -19 -2 -39l-153 -11q0 84 -44 131.5t-120 47.5q-68 0 -113 -38t-45 -100 q0 -45 29 -78.5t63.5 -51t98.5 -42.5q55 -20 76.5 -29.5t68.5 -32t68.5 -43t49 -51t39 -69.5t11.5 -86q0 -125 -93 -208t-247 -83q-162 0 -262 91.5t-103 226.5z" />
<glyph unicode="t" horiz-adv-x="681" d="M45 870v123h143v215l174 72v-287h275v-123h-275v-587q0 -102 45.5 -136t124.5 -34l127 10l9 -123q-76 -31 -195 -31q-123 0 -204 74t-81 231v596h-143z" />
<glyph unicode="u" horiz-adv-x="1067" d="M127 303v639l174 72v-678q0 -223 186 -223q102 0 160 58t58 134v637l174 72v-778q0 -72 29.5 -92.5t103.5 -20.5v-123q-25 -10 -63 -14q-15 -2 -32 -2q-25 0 -52 4q-46 6 -86 40.5t-54 94.5h-4q-86 -154 -281 -154q-141 0 -227 87t-86 247z" />
<glyph unicode="v" horiz-adv-x="862" d="M14 993h185l196 -657l35 -158h2l39 158l203 657h174l-334 -993h-176z" />
<glyph unicode="w" horiz-adv-x="1396" d="M25 993h184l168 -665l29 -140h4l24 140l197 665h147l191 -665l24 -140h4l25 140l178 665h172l-299 -993h-172l-164 578l-37 188h-6l-37 -188l-170 -578h-168z" />
<glyph unicode="x" horiz-adv-x="905" d="M35 0l325 520l-305 473h195l225 -352l211 352h184l-309 -485l330 -508h-195l-247 383l-230 -383h-184z" />
<glyph unicode="y" horiz-adv-x="860" d="M14 993h183l202 -622l31 -125h2l31 123l205 624h178q-4 -10 -72.5 -199.5t-149.5 -409.5t-178.5 -481t-158.5 -417h-166l221 565z" />
<glyph unicode="z" horiz-adv-x="876" d="M86 102l481 748h-473v143h678l10 -102l-487 -748h516v-143h-715z" />
<glyph unicode="{" horiz-adv-x="739" d="M158 571v103q168 51 168 213v430q0 125 100 182t217 25v-113q-70 10 -122 -12.5t-52 -91.5v-420q0 -94 -50 -171t-147 -89q102 -16 149.5 -75.5t47.5 -168.5v-438q0 -70 52 -92.5t122 -12.5v-112q-117 -33 -217 24.5t-100 181.5v449q0 88 -46.5 130t-121.5 58z" />
<glyph unicode="|" horiz-adv-x="520" d="M188 -512v2048h144v-2048h-144z" />
<glyph unicode="}" horiz-adv-x="739" d="M109 -160q70 -10 122 12.5t52 92.5v438q0 109 47 168t149 76q-96 12 -146 89t-50 171v420q0 70 -52.5 92t-121.5 12v113q117 33 217 -24.5t100 -182.5v-430q0 -162 168 -213v-103q-76 -16 -122 -58t-46 -130v-449q0 -125 -100.5 -182t-216.5 -24v112z" />
<glyph unicode="~" horiz-adv-x="980" d="M150 422q-8 96 43 163.5t143 67.5q59 0 162.5 -45t152.5 -45q61 0 62 99h118q10 -106 -34 -174t-140 -68q-55 0 -168.5 45t-146.5 45q-68 0 -68 -88h-124z" />
<glyph unicode="&#xa2;" horiz-adv-x="921" d="M121 328q-6 174 0 327q4 160 93 254.5t235 110.5v158l110 61v-219q141 -14 220 -95t75 -208l-154 -10q-4 88 -59 131t-137 43q-92 0 -148.5 -58.5t-60.5 -167.5q-6 -160 0 -297q8 -246 217 -245q88 0 137 51t62 133l143 -10q4 -119 -74 -210t-221 -106v-155l-110 -52v209 q-147 16 -236.5 106.5t-91.5 248.5z" />
<glyph unicode="&#xa3;" horiz-adv-x="1216" d="M106 625l21 133h152q-8 145 -9 286q0 193 116 306.5t288 113.5q186 0 290.5 -104.5t92.5 -294.5l-164 -10q0 256 -219 256q-100 0 -159.5 -63.5t-59.5 -192.5q0 -80 8 -297h307l-20 -133h-281q0 -20 3 -113.5t3 -136.5q0 -104 -58.5 -169t-119.5 -89q117 37 215 37h588 l-21 -154h-952l-16 102q8 2 19 7.5t43 26t55.5 46t43 74.5t19.5 106q0 37 -1 80t-3 97.5t-2 85.5h-179z" />
<glyph unicode="&#xa5;" horiz-adv-x="1146" d="M14 1434h201l365 -648l354 648h199l-465 -803h329v-133h-331v-133h331v-134h-331v-231h-185v231h-313v134h313v133h-313v133h311z" />
<glyph unicode="&#xa9;" horiz-adv-x="1726" d="M117 717q0 309 218 528t527 219t528.5 -218t219.5 -529q0 -309 -219.5 -527.5t-528.5 -218.5t-527 218.5t-218 527.5zM236 717q0 -266 182 -454.5t444 -188.5q264 0 445.5 188.5t181.5 454.5q0 268 -181.5 456.5t-445.5 188.5q-262 0 -444 -189.5t-182 -455.5zM551 565 q-8 158 0 295t94 221t217 84q123 0 205 -74.5t74 -189.5l-123 -10q0 72 -42 111.5t-114 39.5q-74 0 -118 -47t-50 -135q-8 -111 0 -287q10 -182 170 -182q72 0 114 44t42 122l123 -10q8 -125 -77 -202t-202 -77q-135 0 -221 79t-92 218z" />
<glyph unicode="&#xad;" d="M76 461v153h542v-153h-542z" />
<glyph unicode="&#xae;" horiz-adv-x="1728" d="M117 717q0 311 218 529t529.5 218t529.5 -218t218 -529t-218 -529.5t-529.5 -218.5t-529.5 218.5t-218 529.5zM236 717q0 -268 181 -456.5t447 -188.5t446.5 188.5t180.5 456.5t-180.5 456.5t-446.5 188.5t-447 -188.5t-181 -456.5zM580 293v864h327q133 0 208 -74.5 t75 -187.5q0 -90 -54.5 -157.5t-134.5 -88.5l29 -33l164 -323h-156l-161 334h-154v-334h-143zM723 739h160q78 0 121 41t43 111q0 143 -164 143h-160v-295z" />
<glyph unicode="&#xb4;" horiz-adv-x="774" d="M250 1137l225 297h205l-270 -297h-160z" />
<glyph unicode="&#x2000;" horiz-adv-x="798" />
<glyph unicode="&#x2001;" horiz-adv-x="1597" />
<glyph unicode="&#x2002;" horiz-adv-x="798" />
<glyph unicode="&#x2003;" horiz-adv-x="1597" />
<glyph unicode="&#x2004;" horiz-adv-x="532" />
<glyph unicode="&#x2005;" horiz-adv-x="399" />
<glyph unicode="&#x2006;" horiz-adv-x="266" />
<glyph unicode="&#x2007;" horiz-adv-x="266" />
<glyph unicode="&#x2008;" horiz-adv-x="199" />
<glyph unicode="&#x2009;" horiz-adv-x="319" />
<glyph unicode="&#x200a;" horiz-adv-x="88" />
<glyph unicode="&#x2010;" d="M76 461v153h542v-153h-542z" />
<glyph unicode="&#x2011;" d="M76 461v153h542v-153h-542z" />
<glyph unicode="&#x2012;" d="M76 461v153h542v-153h-542z" />
<glyph unicode="&#x2013;" horiz-adv-x="1046" d="M76 461v153h895v-153h-895z" />
<glyph unicode="&#x2014;" horiz-adv-x="1318" d="M76 461v153h1167v-153h-1167z" />
<glyph unicode="&#x2018;" horiz-adv-x="438" d="M88 1087q0 137 91.5 243.5t228.5 131.5l49 -73q-61 -16 -106.5 -45t-68 -56.5t-36 -53.5t-15.5 -42l-2 -16q45 6 89 -25t44 -102q0 -55 -38.5 -91t-90.5 -36q-66 0 -105.5 44t-39.5 121z" />
<glyph unicode="&#x2019;" horiz-adv-x="438" d="M-6 997q61 16 106 45t67.5 56.5t36 53.5t15.5 42l2 16q-45 -6 -89 25t-44 102q0 55 39 91t90 36q66 0 105.5 -44t39.5 -122q0 -137 -91 -243t-228 -131z" />
<glyph unicode="&#x201c;" horiz-adv-x="774" d="M88 1087q0 137 91.5 243.5t228.5 131.5l49 -73q-61 -16 -106.5 -45t-68 -56.5t-36 -53.5t-15.5 -42l-2 -16q45 6 89 -25t44 -102q0 -55 -38.5 -91t-90.5 -36q-66 0 -105.5 44t-39.5 121zM424 1087q0 137 91 243.5t228 131.5l50 -73q-61 -16 -106.5 -45t-68 -56.5 t-36 -53.5t-15.5 -42l-2 -16q45 6 89 -25t44 -102q0 -55 -38.5 -91t-90.5 -36q-66 0 -105.5 44t-39.5 121z" />
<glyph unicode="&#x201d;" horiz-adv-x="774" d="M-6 997q61 16 106 45t67.5 56.5t36 53.5t15.5 42l2 16q-45 -6 -89 25t-44 102q0 55 39 91t90 36q66 0 105.5 -44t39.5 -122q0 -137 -91 -243t-228 -131zM330 997q61 16 106 45t67.5 56.5t36 53.5t15.5 42l2 16q-45 -6 -89 25t-44 102q0 55 39 91t90 36q66 0 105.5 -44 t39.5 -122q0 -137 -91 -243t-228 -131z" />
<glyph unicode="&#x2022;" horiz-adv-x="669" d="M147 612q0 82 52.5 137.5t130.5 55.5q84 0 138 -54.5t54 -138.5q0 -78 -55 -130t-137 -52q-76 0 -129.5 53t-53.5 129z" />
<glyph unicode="&#x2026;" horiz-adv-x="1447" d="M90 100q0 57 37 96.5t94.5 39.5t96 -39t38.5 -97q0 -55 -38.5 -93t-96 -38t-94.5 38t-37 93zM598 100q0 57 37 96.5t94 39.5t96 -39t39 -97q0 -55 -39 -93t-96 -38t-94 38t-37 93zM1087 100q0 57 37 96.5t94.5 39.5t96.5 -39t39 -97q0 -55 -39 -93t-96.5 -38t-94.5 38 t-37 93z" />
<glyph unicode="&#x202f;" horiz-adv-x="319" />
<glyph unicode="&#x205f;" horiz-adv-x="399" />
<glyph unicode="&#x20ac;" horiz-adv-x="1214" d="M55 481l31 133h156q-3 92 0 185h-187l31 133h158q0 41 2 59q8 231 138 352t325 121q190 0 304.5 -110.5t106.5 -288.5l-164 -10q-2 113 -65.5 184.5t-181.5 71.5q-121 0 -197 -84t-82 -236q-2 -20 -2 -59h459l-21 -133h-440q-3 -89 0 -185h420l-21 -133h-397 q0 -8 1 -24.5t1 -24.5q4 -143 81 -226t198 -83q117 0 183 69.5t71 196.5l163 -10q8 -188 -106.5 -299t-310.5 -111q-199 0 -327 121t-136 340q-2 16 -2 51h-189z" />
<glyph unicode="&#x2122;" horiz-adv-x="1488" d="M-6 1321v113h606v-113h-231v-625h-144v625h-231zM696 696v738h125l240 -400l260 400h123v-738h-144v527l-231 -355h-27l-213 351v-523h-133z" />
<glyph unicode="&#xe000;" horiz-adv-x="995" d="M0 995h995v-995h-995v995z" />
</font>
</defs>
</svg>
